<?xml version="1.0" encoding="UTF-8" standalone="no"?>
<!DOCTYPE svg PUBLIC "-//W3C//DTD SVG 1.1//EN"
 "http://www.w3.org/Graphics/SVG/1.1/DTD/svg11.dtd">
<!-- Generated by graphviz version 14.1.4 (20260321.0153)
 -->
<!-- Title: Architecture Pages: 1 -->
<svg width="3216pt" height="2673pt"
 viewBox="0.00 0.00 3216.00 2673.00" xmlns="http://www.w3.org/2000/svg" xmlns:xlink="http://www.w3.org/1999/xlink">
<g id="graph0" class="graph" transform="scale(2.77778 2.77778) rotate(0) translate(28.8 933.6)">
<title>Architecture</title>
<polygon fill="white" stroke="none" points="-28.8,28.8 -28.8,-933.6 1129.05,-933.6 1129.05,28.8 -28.8,28.8"/>
<g id="clust1" class="cluster">
<title>cluster_ui</title>
<path fill="#eff6ff" stroke="#1e40af" stroke-dasharray="5,2" d="M271,-748.45C271,-748.45 697,-748.45 697,-748.45 703,-748.45 709,-754.45 709,-760.45 709,-760.45 709,-816.8 709,-816.8 709,-822.8 703,-828.8 697,-828.8 697,-828.8 271,-828.8 271,-828.8 265,-828.8 259,-822.8 259,-816.8 259,-816.8 259,-760.45 259,-760.45 259,-754.45 265,-748.45 271,-748.45"/>
<text xml:space="preserve" text-anchor="middle" x="331.12" y="-813.4" font-family="Helvetica,sans-Serif" font-weight="bold" font-size="12.00">Streamlit UI &#160;— &#160;app.py</text>
</g>
<g id="clust2" class="cluster">
<title>cluster_ml</title>
<path fill="#fff7ed" stroke="#c2410c" stroke-dasharray="5,2" d="M20,-463.25C20,-463.25 239,-463.25 239,-463.25 245,-463.25 251,-469.25 251,-475.25 251,-475.25 251,-816.8 251,-816.8 251,-822.8 245,-828.8 239,-828.8 239,-828.8 20,-828.8 20,-828.8 14,-828.8 8,-822.8 8,-816.8 8,-816.8 8,-475.25 8,-475.25 8,-469.25 14,-463.25 20,-463.25"/>
<text xml:space="preserve" text-anchor="middle" x="129.25" y="-813.4" font-family="Helvetica,sans-Serif" font-weight="bold" font-size="12.00">ML Prediction Layer &#160;— &#160;model_brain.py</text>
</g>
<g id="clust3" class="cluster">
<title>cluster_agents</title>
<path fill="#fef2f2" stroke="#b91c1c" stroke-dasharray="5,2" d="M314,-101.6C314,-101.6 715,-101.6 715,-101.6 721,-101.6 727,-107.6 727,-113.6 727,-113.6 727,-685.95 727,-685.95 727,-691.95 721,-697.95 715,-697.95 715,-697.95 314,-697.95 314,-697.95 308,-697.95 302,-691.95 302,-685.95 302,-685.95 302,-113.6 302,-113.6 302,-107.6 308,-101.6 314,-101.6"/>
<text xml:space="preserve" text-anchor="middle" x="394" y="-682.55" font-family="Helvetica,sans-Serif" font-weight="bold" font-size="12.00">Agentic Layer &#160;— &#160;LangGraph</text>
</g>
<g id="clust4" class="cluster">
<title>cluster_stategraph</title>
<path fill="#fff1f1" stroke="#b91c1c" d="M560,-109.6C560,-109.6 707,-109.6 707,-109.6 713,-109.6 719,-115.6 719,-121.6 719,-121.6 719,-657.2 719,-657.2 719,-663.2 713,-669.2 707,-669.2 707,-669.2 560,-669.2 560,-669.2 554,-669.2 548,-663.2 548,-657.2 548,-657.2 548,-121.6 548,-121.6 548,-115.6 554,-109.6 560,-109.6"/>
<text xml:space="preserve" text-anchor="middle" x="633.25" y="-654.75" font-family="Helvetica,sans-Serif" font-weight="bold" font-size="11.00">5&#45;Step StateGraph &#160;(agent.py)</text>
</g>
<g id="clust5" class="cluster">
<title>cluster_rag</title>
<path fill="#f0fdf4" stroke="#15803d" stroke-dasharray="5,2" d="M809,-216.2C809,-216.2 979,-216.2 979,-216.2 985,-216.2 991,-222.2 991,-228.2 991,-228.2 991,-657.95 991,-657.95 991,-663.95 985,-669.95 979,-669.95 979,-669.95 809,-669.95 809,-669.95 803,-669.95 797,-663.95 797,-657.95 797,-657.95 797,-228.2 797,-228.2 797,-222.2 803,-216.2 809,-216.2"/>
<text xml:space="preserve" text-anchor="middle" x="836.12" y="-654.55" font-family="Helvetica,sans-Serif" font-weight="bold" font-size="12.00">RAG Layer</text>
</g>
<!-- user -->
<g id="node1" class="node">
<title>user</title>
<path fill="#f3f4f6" stroke="#374151" stroke-width="1.6" d="M564.4,-904.8C564.4,-904.8 415.6,-904.8 415.6,-904.8 409.6,-904.8 403.6,-898.8 403.6,-892.8 403.6,-892.8 403.6,-880.8 403.6,-880.8 403.6,-874.8 409.6,-868.8 415.6,-868.8 415.6,-868.8 564.4,-868.8 564.4,-868.8 570.4,-868.8 576.4,-874.8 576.4,-880.8 576.4,-880.8 576.4,-892.8 576.4,-892.8 576.4,-898.8 570.4,-904.8 564.4,-904.8"/>
<text xml:space="preserve" text-anchor="middle" x="490" y="-882.35" font-family="Helvetica,sans-Serif" font-size="11.00" fill="#111827">Clinic Operations Staff</text>
</g>
<!-- t1 -->
<g id="node2" class="node">
<title>t1</title>
<path fill="#dbeafe" stroke="#1e40af" stroke-width="1.6" d="M392.77,-800.05C392.77,-800.05 279.23,-800.05 279.23,-800.05 273.23,-800.05 267.23,-794.05 267.23,-788.05 267.23,-788.05 267.23,-768.45 267.23,-768.45 267.23,-762.45 273.23,-756.45 279.23,-756.45 279.23,-756.45 392.77,-756.45 392.77,-756.45 398.77,-756.45 404.77,-762.45 404.77,-768.45 404.77,-768.45 404.77,-788.05 404.77,-788.05 404.77,-794.05 398.77,-800.05 392.77,-800.05"/>
<text xml:space="preserve" text-anchor="start" x="322.12" y="-779.8" font-family="Helvetica,sans-Serif" font-weight="bold" font-size="11.00" fill="#1e3a8a">Tab 1</text>
<text xml:space="preserve" text-anchor="start" x="281.62" y="-768.8" font-family="Helvetica,sans-Serif" font-size="11.00" fill="#1e3a8a">Single Patient Analysis</text>
</g>
<!-- user&#45;&gt;t1 -->
<g id="edge10" class="edge">
<title>user&#45;&gt;t1</title>
<path fill="none" stroke="#334155" stroke-width="1.3" d="M464.57,-868.21C440.65,-851.66 404.44,-826.6 376.54,-807.3"/>
<polygon fill="#334155" stroke="#334155" stroke-width="1.3" points="368.35,-801.64 379.14,-803.62 371.25,-803.46 376.66,-807.2 376.58,-807.32 376.49,-807.45 371.08,-803.7 374.02,-811.03 368.35,-801.64"/>
</g>
<!-- t2 -->
<g id="node3" class="node">
<title>t2</title>
<path fill="#dbeafe" stroke="#1e40af" stroke-width="1.6" d="M527.27,-800.05C527.27,-800.05 452.73,-800.05 452.73,-800.05 446.73,-800.05 440.73,-794.05 440.73,-788.05 440.73,-788.05 440.73,-768.45 440.73,-768.45 440.73,-762.45 446.73,-756.45 452.73,-756.45 452.73,-756.45 527.27,-756.45 527.27,-756.45 533.27,-756.45 539.27,-762.45 539.27,-768.45 539.27,-768.45 539.27,-788.05 539.27,-788.05 539.27,-794.05 533.27,-800.05 527.27,-800.05"/>
<text xml:space="preserve" text-anchor="start" x="476.12" y="-779.8" font-family="Helvetica,sans-Serif" font-weight="bold" font-size="11.00" fill="#1e3a8a">Tab 2</text>
<text xml:space="preserve" text-anchor="start" x="455.12" y="-768.8" font-family="Helvetica,sans-Serif" font-size="11.00" fill="#1e3a8a">Batch Analysis</text>
</g>
<!-- user&#45;&gt;t2 -->
<g id="edge11" class="edge">
<title>user&#45;&gt;t2</title>
<path fill="none" stroke="#334155" stroke-width="1.3" d="M490,-868.21C490,-852.98 490,-830.56 490,-812.04"/>
<polygon fill="#334155" stroke="#334155" stroke-width="1.3" points="490,-802.13 494.5,-812.13 490.15,-805.54 490.15,-812.13 490,-812.13 489.85,-812.13 489.85,-805.54 485.5,-812.13 490,-802.13"/>
</g>
<!-- t3 -->
<g id="node4" class="node">
<title>t3</title>
<path fill="#dbeafe" stroke="#1e40af" stroke-width="1.6" d="M689.15,-800.05C689.15,-800.05 586.85,-800.05 586.85,-800.05 580.85,-800.05 574.85,-794.05 574.85,-788.05 574.85,-788.05 574.85,-768.45 574.85,-768.45 574.85,-762.45 580.85,-756.45 586.85,-756.45 586.85,-756.45 689.15,-756.45 689.15,-756.45 695.15,-756.45 701.15,-762.45 701.15,-768.45 701.15,-768.45 701.15,-788.05 701.15,-788.05 701.15,-794.05 695.15,-800.05 689.15,-800.05"/>
<text xml:space="preserve" text-anchor="start" x="624.12" y="-779.8" font-family="Helvetica,sans-Serif" font-weight="bold" font-size="11.00" fill="#1e3a8a">Tab 3</text>
<text xml:space="preserve" text-anchor="start" x="589.25" y="-768.8" font-family="Helvetica,sans-Serif" font-size="11.00" fill="#1e3a8a">AI Care Coordinator</text>
</g>
<!-- user&#45;&gt;t3 -->
<g id="edge12" class="edge">
<title>user&#45;&gt;t3</title>
<path fill="none" stroke="#334155" stroke-width="1.3" d="M514.44,-868.21C537.43,-851.66 572.22,-826.6 599.04,-807.3"/>
<polygon fill="#334155" stroke="#334155" stroke-width="1.3" points="606.87,-801.66 601.39,-811.15 604.19,-803.78 598.85,-807.62 598.76,-807.5 598.67,-807.38 604.01,-803.53 596.13,-803.85 606.87,-801.66"/>
</g>
<!-- model -->
<g id="node7" class="node">
<title>model</title>
<path fill="#fed7aa" stroke="#c2410c" stroke-width="1.6" d="M231.28,-525.85C231.28,-525.85 108.72,-525.85 108.72,-525.85 102.72,-525.85 96.72,-519.85 96.72,-513.85 96.72,-513.85 96.72,-483.25 96.72,-483.25 96.72,-477.25 102.72,-471.25 108.72,-471.25 108.72,-471.25 231.28,-471.25 231.28,-471.25 237.28,-471.25 243.28,-477.25 243.28,-483.25 243.28,-483.25 243.28,-513.85 243.28,-513.85 243.28,-519.85 237.28,-525.85 231.28,-525.85"/>
<text xml:space="preserve" text-anchor="start" x="111.12" y="-505.6" font-family="Helvetica,sans-Serif" font-weight="bold" font-size="11.00" fill="#7c2d12">DecisionTreeClassifier</text>
<text xml:space="preserve" text-anchor="start" x="134" y="-494.6" font-family="Helvetica,sans-Serif" font-size="11.00" fill="#7c2d12">max_depth=10</text>
<text xml:space="preserve" text-anchor="start" x="147.12" y="-483.6" font-family="Helvetica,sans-Serif" font-size="11.00" fill="#7c2d12">model.pkl</text>
</g>
<!-- t1&#45;&gt;model -->
<g id="edge13" class="edge">
<title>t1&#45;&gt;model</title>
<path fill="none" stroke="#1e40af" stroke-width="1.3" d="M279.88,-755.77C273.59,-753.07 267.29,-750.25 261.32,-747.38"/>
<polygon fill="#1e40af" stroke="#1e40af" stroke-width="1.3" points="263.26,-744.44 252.76,-743.06 260.11,-750.69 263.26,-744.44"/>
</g>
<!-- t2&#45;&gt;model -->
<g id="edge14" class="edge">
<title>t2&#45;&gt;model</title>
<path fill="none" stroke="#1e40af" stroke-width="1.3" d="M440.32,-755.66C434.5,-753.2 428.62,-750.75 423,-748.45 365.63,-724.98 340.68,-737.56 293,-697.95 283.17,-689.78 270.71,-673.59 257.52,-653.83"/>
<polygon fill="#1e40af" stroke="#1e40af" stroke-width="1.3" points="260.48,-651.96 252.07,-645.51 254.62,-655.79 260.48,-651.96"/>
</g>
<!-- s1 -->
<g id="node8" class="node">
<title>s1</title>
<path fill="#fecaca" stroke="#b91c1c" stroke-width="1.6" d="M695.77,-641.2C695.77,-641.2 588.23,-641.2 588.23,-641.2 582.23,-641.2 576.23,-635.2 576.23,-629.2 576.23,-629.2 576.23,-609.6 576.23,-609.6 576.23,-603.6 582.23,-597.6 588.23,-597.6 588.23,-597.6 695.77,-597.6 695.77,-597.6 701.77,-597.6 707.77,-603.6 707.77,-609.6 707.77,-609.6 707.77,-629.2 707.77,-629.2 707.77,-635.2 701.77,-641.2 695.77,-641.2"/>
<text xml:space="preserve" text-anchor="start" x="590.62" y="-620.95" font-family="Helvetica,sans-Serif" font-weight="bold" font-size="11.00" fill="#7f1d1d">1 · risk_assessment</text>
<text xml:space="preserve" text-anchor="start" x="634.5" y="-609.95" font-family="Helvetica,sans-Serif" font-style="italic" font-size="11.00" fill="#7f1d1d">ML</text>
</g>
<!-- t3&#45;&gt;s1 -->
<g id="edge15" class="edge">
<title>t3&#45;&gt;s1</title>
<path fill="none" stroke="#1e40af" stroke-width="1.3" d="M638.55,-755.77C639.04,-736.53 639.78,-707.38 640.45,-681.05"/>
<polygon fill="#1e40af" stroke="#1e40af" stroke-width="1.3" points="643.95,-681.25 640.71,-671.16 636.95,-681.07 643.95,-681.25"/>
<text xml:space="preserve" text-anchor="middle" x="668.26" y="-716.9" font-family="Helvetica,sans-Serif" font-size="9.00">Run Full Care</text>
<text xml:space="preserve" text-anchor="middle" x="668.26" y="-707.15" font-family="Helvetica,sans-Serif" font-size="9.00">Workflow</text>
</g>
<!-- react -->
<g id="node13" class="node">
<title>react</title>
<path fill="#fee2e2" stroke="#b91c1c" stroke-width="1.6" d="M528.27,-641.2C528.27,-641.2 321.73,-641.2 321.73,-641.2 315.73,-641.2 309.73,-635.2 309.73,-629.2 309.73,-629.2 309.73,-609.6 309.73,-609.6 309.73,-603.6 315.73,-597.6 321.73,-597.6 321.73,-597.6 528.27,-597.6 528.27,-597.6 534.27,-597.6 540.27,-603.6 540.27,-609.6 540.27,-609.6 540.27,-629.2 540.27,-629.2 540.27,-635.2 534.27,-641.2 528.27,-641.2"/>
<text xml:space="preserve" text-anchor="start" x="344" y="-620.95" font-family="Helvetica,sans-Serif" font-weight="bold" font-size="11.00" fill="#7f1d1d">ReAct Agent</text>
<text xml:space="preserve" text-anchor="start" x="410" y="-620.95" font-family="Helvetica,sans-Serif" font-size="11.00" fill="#7f1d1d"> &#160;(chatbot_agent.py)</text>
<text xml:space="preserve" text-anchor="start" x="324.12" y="-609.95" font-family="Helvetica,sans-Serif" font-size="11.00" fill="#7f1d1d">Tools: predict_noshow · search_guidelines</text>
</g>
<!-- t3&#45;&gt;react -->
<g id="edge16" class="edge">
<title>t3&#45;&gt;react</title>
<path fill="none" stroke="#1e40af" stroke-width="1.3" d="M608.83,-755.77C571.17,-728.04 505.53,-679.7 463.73,-648.92"/>
<polygon fill="#1e40af" stroke="#1e40af" stroke-width="1.3" points="465.87,-646.15 455.74,-643.04 461.72,-651.79 465.87,-646.15"/>
<text xml:space="preserve" text-anchor="middle" x="572.77" y="-712.02" font-family="Helvetica,sans-Serif" font-size="9.00">Chat</text>
</g>
<!-- pdf -->
<g id="node19" class="node">
<title>pdf</title>
<polygon fill="#fef3c7" stroke="#b45309" stroke-width="1.6" points="755.77,-49.1 612.23,-49.1 612.23,-5.5 761.77,-5.5 761.77,-43.1 755.77,-49.1"/>
<polyline fill="none" stroke="#b45309" stroke-width="1.6" points="755.77,-49.1 755.77,-43.1"/>
<polyline fill="none" stroke="#b45309" stroke-width="1.6" points="761.77,-43.1 755.77,-43.1"/>
<text xml:space="preserve" text-anchor="start" x="626.62" y="-28.85" font-family="Helvetica,sans-Serif" font-weight="bold" font-size="11.00" fill="#78350f">Structured PDF Report</text>
<text xml:space="preserve" text-anchor="start" x="630" y="-17.85" font-family="Helvetica,sans-Serif" font-size="11.00" fill="#78350f">pdf_generator.py · fpdf2</text>
</g>
<!-- t3&#45;&gt;pdf -->
<g id="edge26" class="edge">
<title>t3&#45;&gt;pdf</title>
<path fill="none" stroke="#b45309" stroke-width="1.3" d="M701.59,-770.03C792.65,-758.59 954.26,-733.85 1000,-697.95 1030.19,-674.25 1038,-658.78 1038,-620.4 1038,-620.4 1038,-620.4 1038,-138.4 1038,-83.21 878,-52.36 774.05,-38.13"/>
<polygon fill="#b45309" stroke="#b45309" stroke-width="1.3" points="774.62,-34.68 764.25,-36.82 773.7,-41.62 774.62,-34.68"/>
<text xml:space="preserve" text-anchor="middle" x="1069.12" y="-378.9" font-family="Helvetica,sans-Serif" font-size="9.00">Generate &amp;</text>
<text xml:space="preserve" text-anchor="middle" x="1069.12" y="-369.15" font-family="Helvetica,sans-Serif" font-size="9.00">Download PDF</text>
</g>
<!-- feats -->
<g id="node5" class="node">
<title>feats</title>
<path fill="#fed7aa" stroke="#c2410c" stroke-width="1.6" d="M110.9,-800.05C110.9,-800.05 31.1,-800.05 31.1,-800.05 25.1,-800.05 19.1,-794.05 19.1,-788.05 19.1,-788.05 19.1,-768.45 19.1,-768.45 19.1,-762.45 25.1,-756.45 31.1,-756.45 31.1,-756.45 110.9,-756.45 110.9,-756.45 116.9,-756.45 122.9,-762.45 122.9,-768.45 122.9,-768.45 122.9,-788.05 122.9,-788.05 122.9,-794.05 116.9,-800.05 110.9,-800.05"/>
<text xml:space="preserve" text-anchor="start" x="42.12" y="-779.8" font-family="Helvetica,sans-Serif" font-weight="bold" font-size="11.00" fill="#7c2d12">14 features</text>
<text xml:space="preserve" text-anchor="start" x="33.5" y="-768.8" font-family="Helvetica,sans-Serif" font-size="11.00" fill="#7c2d12">feature_cols.pkl</text>
</g>
<!-- scaler -->
<g id="node6" class="node">
<title>scaler</title>
<path fill="#fed7aa" stroke="#c2410c" stroke-width="1.6" d="M113.9,-641.2C113.9,-641.2 28.1,-641.2 28.1,-641.2 22.1,-641.2 16.1,-635.2 16.1,-629.2 16.1,-629.2 16.1,-609.6 16.1,-609.6 16.1,-603.6 22.1,-597.6 28.1,-597.6 28.1,-597.6 113.9,-597.6 113.9,-597.6 119.9,-597.6 125.9,-603.6 125.9,-609.6 125.9,-609.6 125.9,-629.2 125.9,-629.2 125.9,-635.2 119.9,-641.2 113.9,-641.2"/>
<text xml:space="preserve" text-anchor="start" x="30.5" y="-620.95" font-family="Helvetica,sans-Serif" font-weight="bold" font-size="11.00" fill="#7c2d12">StandardScaler</text>
<text xml:space="preserve" text-anchor="start" x="48.88" y="-609.95" font-family="Helvetica,sans-Serif" font-size="11.00" fill="#7c2d12">scaler.pkl</text>
</g>
<!-- feats&#45;&gt;scaler -->
<g id="edge1" class="edge">
<title>feats&#45;&gt;scaler</title>
<path fill="none" stroke="#334155" stroke-width="1.3" stroke-dasharray="5,2" d="M71,-755.77C71,-725.82 71,-671.82 71,-641.87"/>
</g>
<!-- scaler&#45;&gt;model -->
<g id="edge2" class="edge">
<title>scaler&#45;&gt;model</title>
<path fill="none" stroke="#334155" stroke-width="1.3" stroke-dasharray="5,2" d="M88.93,-596.88C105.42,-577.08 129.94,-547.64 147.69,-526.33"/>
</g>
<!-- s1&#45;&gt;model -->
<g id="edge17" class="edge">
<title>s1&#45;&gt;model</title>
<path fill="none" stroke="#c2410c" stroke-width="1.3" stroke-dasharray="5,2" d="M590.46,-596.86C557.81,-583.85 514.47,-567.75 475,-556.85 401.94,-536.68 317.07,-521.37 255.43,-511.67"/>
<polygon fill="#c2410c" stroke="#c2410c" stroke-width="1.3" points="263.4,-509.56 252.94,-511.22 262.15,-516.45 263.4,-509.56"/>
<text xml:space="preserve" text-anchor="middle" x="516.77" y="-558.05" font-family="Helvetica,sans-Serif" font-size="9.00">predict</text>
</g>
<!-- s2 -->
<g id="node9" class="node">
<title>s2</title>
<path fill="#fecaca" stroke="#b91c1c" stroke-width="1.6" d="M682.9,-520.35C682.9,-520.35 585.1,-520.35 585.1,-520.35 579.1,-520.35 573.1,-514.35 573.1,-508.35 573.1,-508.35 573.1,-488.75 573.1,-488.75 573.1,-482.75 579.1,-476.75 585.1,-476.75 585.1,-476.75 682.9,-476.75 682.9,-476.75 688.9,-476.75 694.9,-482.75 694.9,-488.75 694.9,-488.75 694.9,-508.35 694.9,-508.35 694.9,-514.35 688.9,-520.35 682.9,-520.35"/>
<text xml:space="preserve" text-anchor="start" x="587.5" y="-500.1" font-family="Helvetica,sans-Serif" font-weight="bold" font-size="11.00" fill="#7f1d1d">2 · risk_reasoning</text>
<text xml:space="preserve" text-anchor="start" x="623.5" y="-489.1" font-family="Helvetica,sans-Serif" font-style="italic" font-size="11.00" fill="#7f1d1d">LLM</text>
</g>
<!-- s1&#45;&gt;s2 -->
<g id="edge3" class="edge">
<title>s1&#45;&gt;s2</title>
<path fill="none" stroke="#b91c1c" stroke-width="1.8" d="M640.55,-596.88C639.36,-579.21 637.66,-553.87 636.28,-533.47"/>
<polygon fill="#b91c1c" stroke="#b91c1c" stroke-width="1.8" points="639.78,-533.37 635.62,-523.63 632.8,-533.84 639.78,-533.37"/>
</g>
<!-- s3 -->
<g id="node10" class="node">
<title>s3</title>
<path fill="#fecaca" stroke="#b91c1c" stroke-width="1.6" d="M695.27,-399.5C695.27,-399.5 578.73,-399.5 578.73,-399.5 572.73,-399.5 566.73,-393.5 566.73,-387.5 566.73,-387.5 566.73,-367.9 566.73,-367.9 566.73,-361.9 572.73,-355.9 578.73,-355.9 578.73,-355.9 695.27,-355.9 695.27,-355.9 701.27,-355.9 707.27,-361.9 707.27,-367.9 707.27,-367.9 707.27,-387.5 707.27,-387.5 707.27,-393.5 701.27,-399.5 695.27,-399.5"/>
<text xml:space="preserve" text-anchor="start" x="581.12" y="-379.25" font-family="Helvetica,sans-Serif" font-weight="bold" font-size="11.00" fill="#7f1d1d">3 · guideline_retrieval</text>
<text xml:space="preserve" text-anchor="start" x="625" y="-368.25" font-family="Helvetica,sans-Serif" font-style="italic" font-size="11.00" fill="#7f1d1d">RAG</text>
</g>
<!-- s2&#45;&gt;s3 -->
<g id="edge4" class="edge">
<title>s2&#45;&gt;s3</title>
<path fill="none" stroke="#b91c1c" stroke-width="1.8" d="M634.54,-476.03C634.99,-458.36 635.63,-433.02 636.14,-412.62"/>
<polygon fill="#b91c1c" stroke="#b91c1c" stroke-width="1.8" points="639.64,-412.87 636.39,-402.79 632.64,-412.69 639.64,-412.87"/>
</g>
<!-- llm -->
<g id="node18" class="node">
<title>llm</title>
<polygon fill="#e9d5ff" stroke="#7e22ce" stroke-width="1.6" points="564.02,-54.6 443.98,-54.6 439.98,-50.6 439.98,0 560.02,0 564.02,-4 564.02,-54.6"/>
<polyline fill="none" stroke="#7e22ce" stroke-width="1.6" points="560.02,-50.6 439.98,-50.6"/>
<polyline fill="none" stroke="#7e22ce" stroke-width="1.6" points="560.02,-50.6 560.02,0"/>
<polyline fill="none" stroke="#7e22ce" stroke-width="1.6" points="560.02,-50.6 564.02,-54.6"/>
<text xml:space="preserve" text-anchor="start" x="471.62" y="-34.35" font-family="Helvetica,sans-Serif" font-weight="bold" font-size="11.00" fill="#581c87">Groq Cloud</text>
<text xml:space="preserve" text-anchor="start" x="454.38" y="-23.35" font-family="Helvetica,sans-Serif" font-size="11.00" fill="#581c87">llama&#45;3.1&#45;8b&#45;instant</text>
<text xml:space="preserve" text-anchor="start" x="479.88" y="-12.35" font-family="Helvetica,sans-Serif" font-style="italic" font-size="11.00" fill="#581c87">(free tier)</text>
</g>
<!-- s2&#45;&gt;llm -->
<g id="edge19" class="edge">
<title>s2&#45;&gt;llm</title>
<path fill="none" stroke="#7e22ce" stroke-width="1.3" stroke-dasharray="5,2" d="M596.01,-475.98C540.56,-444.2 444,-387.58 444,-378.7 444,-378.7 444,-378.7 444,-138.4 444,-111.66 457.55,-85.05 471.56,-64.69"/>
<polygon fill="#7e22ce" stroke="#7e22ce" stroke-width="1.3" points="474.23,-66.96 477.26,-56.81 468.56,-62.86 474.23,-66.96"/>
</g>
<!-- s4 -->
<g id="node11" class="node">
<title>s4</title>
<path fill="#fecaca" stroke="#b91c1c" stroke-width="1.6" d="M692.65,-275.97C692.65,-275.97 581.35,-275.97 581.35,-275.97 575.35,-275.97 569.35,-269.97 569.35,-263.97 569.35,-263.97 569.35,-244.38 569.35,-244.38 569.35,-238.38 575.35,-232.38 581.35,-232.38 581.35,-232.38 692.65,-232.38 692.65,-232.38 698.65,-232.38 704.65,-238.38 704.65,-244.38 704.65,-244.38 704.65,-263.97 704.65,-263.97 704.65,-269.97 698.65,-275.97 692.65,-275.97"/>
<text xml:space="preserve" text-anchor="start" x="583.75" y="-255.72" font-family="Helvetica,sans-Serif" font-weight="bold" font-size="11.00" fill="#7f1d1d">4 · intervention_plan</text>
<text xml:space="preserve" text-anchor="start" x="626.5" y="-244.72" font-family="Helvetica,sans-Serif" font-style="italic" font-size="11.00" fill="#7f1d1d">LLM</text>
</g>
<!-- s3&#45;&gt;s4 -->
<g id="edge5" class="edge">
<title>s3&#45;&gt;s4</title>
<path fill="none" stroke="#b91c1c" stroke-width="1.8" d="M637,-355.25C637,-336.94 637,-310.29 637,-289.09"/>
<polygon fill="#b91c1c" stroke="#b91c1c" stroke-width="1.8" points="640.5,-289.13 637,-279.13 633.5,-289.13 640.5,-289.13"/>
</g>
<!-- chroma -->
<g id="node17" class="node">
<title>chroma</title>
<path fill="#86efac" stroke="#15803d" stroke-width="1.6" d="M935.02,-278.7C935.02,-281.71 905.88,-284.15 870,-284.15 834.12,-284.15 804.98,-281.71 804.98,-278.7 804.98,-278.7 804.98,-229.65 804.98,-229.65 804.98,-226.64 834.12,-224.2 870,-224.2 905.88,-224.2 935.02,-226.64 935.02,-229.65 935.02,-229.65 935.02,-278.7 935.02,-278.7"/>
<path fill="none" stroke="#15803d" stroke-width="1.6" d="M935.02,-278.7C935.02,-275.69 905.88,-273.25 870,-273.25 834.12,-273.25 804.98,-275.69 804.98,-278.7"/>
<text xml:space="preserve" text-anchor="start" x="840.75" y="-255.72" font-family="Helvetica,sans-Serif" font-weight="bold" font-size="11.00" fill="#14532d">ChromaDB</text>
<text xml:space="preserve" text-anchor="start" x="819.38" y="-244.72" font-family="Helvetica,sans-Serif" font-size="11.00" fill="#14532d">40 chunks · persisted</text>
</g>
<!-- s3&#45;&gt;chroma -->
<g id="edge18" class="edge">
<title>s3&#45;&gt;chroma</title>
<path fill="none" stroke="#15803d" stroke-width="1.3" stroke-dasharray="5,2" d="M656.18,-355.27C668.79,-342.24 686.24,-326.05 704.25,-315.15 731.52,-298.65 764.05,-285.64 793.03,-276.02"/>
<polygon fill="#15803d" stroke="#15803d" stroke-width="1.3" points="787.3,-282.2 795.18,-275.13 784.61,-275.74 787.3,-282.2"/>
<text xml:space="preserve" text-anchor="middle" x="719.62" y="-316.35" font-family="Helvetica,sans-Serif" font-size="9.00">retrieve</text>
</g>
<!-- s5 -->
<g id="node12" class="node">
<title>s5</title>
<path fill="#fecaca" stroke="#b91c1c" stroke-width="1.6" d="M699.15,-161.2C699.15,-161.2 584.85,-161.2 584.85,-161.2 578.85,-161.2 572.85,-155.2 572.85,-149.2 572.85,-149.2 572.85,-129.6 572.85,-129.6 572.85,-123.6 578.85,-117.6 584.85,-117.6 584.85,-117.6 699.15,-117.6 699.15,-117.6 705.15,-117.6 711.15,-123.6 711.15,-129.6 711.15,-129.6 711.15,-149.2 711.15,-149.2 711.15,-155.2 705.15,-161.2 699.15,-161.2"/>
<text xml:space="preserve" text-anchor="start" x="587.25" y="-140.95" font-family="Helvetica,sans-Serif" font-weight="bold" font-size="11.00" fill="#7f1d1d">5 · report_generation</text>
<text xml:space="preserve" text-anchor="start" x="631.5" y="-129.95" font-family="Helvetica,sans-Serif" font-style="italic" font-size="11.00" fill="#7f1d1d">LLM</text>
</g>
<!-- s4&#45;&gt;s5 -->
<g id="edge6" class="edge">
<title>s4&#45;&gt;s5</title>
<path fill="none" stroke="#b91c1c" stroke-width="1.8" d="M637.95,-231.7C638.67,-215.47 639.67,-192.89 640.5,-174.24"/>
<polygon fill="#b91c1c" stroke="#b91c1c" stroke-width="1.8" points="643.98,-174.66 640.93,-164.52 636.99,-174.35 643.98,-174.66"/>
</g>
<!-- s4&#45;&gt;llm -->
<g id="edge20" class="edge">
<title>s4&#45;&gt;llm</title>
<path fill="none" stroke="#7e22ce" stroke-width="1.3" stroke-dasharray="5,2" d="M614.06,-231.9C596.12,-214.3 571.54,-187.95 555,-161.2 536.54,-131.34 522.31,-93.95 513.27,-66.44"/>
<polygon fill="#7e22ce" stroke="#7e22ce" stroke-width="1.3" points="516.68,-65.65 510.31,-57.18 510.02,-67.78 516.68,-65.65"/>
</g>
<!-- s5&#45;&gt;llm -->
<g id="edge21" class="edge">
<title>s5&#45;&gt;llm</title>
<path fill="none" stroke="#7e22ce" stroke-width="1.3" stroke-dasharray="5,2" d="M614.67,-116.91C595.11,-101.52 568.35,-80.48 545.82,-62.76"/>
<polygon fill="#7e22ce" stroke="#7e22ce" stroke-width="1.3" points="548.03,-60.04 538,-56.61 543.7,-65.55 548.03,-60.04"/>
</g>
<!-- s5&#45;&gt;pdf -->
<g id="edge25" class="edge">
<title>s5&#45;&gt;pdf</title>
<path fill="none" stroke="#b45309" stroke-width="1.3" d="M650.78,-116.91C657.32,-100.92 666.35,-78.82 673.76,-60.69"/>
<polygon fill="#b45309" stroke="#b45309" stroke-width="1.3" points="676.95,-62.14 677.49,-51.56 670.47,-59.49 676.95,-62.14"/>
</g>
<!-- react&#45;&gt;model -->
<g id="edge22" class="edge">
<title>react&#45;&gt;model</title>
<path fill="none" stroke="#c2410c" stroke-width="1.3" stroke-dasharray="5,2" d="M378.82,-596.88C339.71,-578.65 283.07,-552.25 238.64,-531.54"/>
<polygon fill="#c2410c" stroke="#c2410c" stroke-width="1.3" points="240.25,-528.43 229.7,-527.38 237.29,-534.77 240.25,-528.43"/>
<text xml:space="preserve" text-anchor="middle" x="320.27" y="-558.05" font-family="Helvetica,sans-Serif" font-size="9.00">tool</text>
</g>
<!-- react&#45;&gt;chroma -->
<g id="edge23" class="edge">
<title>react&#45;&gt;chroma</title>
<path fill="none" stroke="#15803d" stroke-width="1.3" stroke-dasharray="5,2" d="M525.26,-596.85C600.78,-578.96 696.37,-552.26 727,-525.85 790.36,-471.2 768.01,-429.4 808,-355.9 819.21,-335.3 832.76,-313.03 844.33,-294.68"/>
<polygon fill="#15803d" stroke="#15803d" stroke-width="1.3" points="847.24,-296.63 849.64,-286.31 841.33,-292.88 847.24,-296.63"/>
<text xml:space="preserve" text-anchor="middle" x="787.96" y="-431.7" font-family="Helvetica,sans-Serif" font-size="9.00">tool</text>
</g>
<!-- react&#45;&gt;llm -->
<g id="edge24" class="edge">
<title>react&#45;&gt;llm</title>
<path fill="none" stroke="#7e22ce" stroke-width="1.3" stroke-dasharray="5,2" d="M408.2,-596.99C392.02,-574.19 370,-536.38 370,-499.55 370,-499.55 370,-499.55 370,-138.4 370,-102.88 398.54,-76.58 429.08,-58.62"/>
<polygon fill="#7e22ce" stroke="#7e22ce" stroke-width="1.3" points="430.72,-61.71 437.76,-53.8 427.32,-55.59 430.72,-61.71"/>
<text xml:space="preserve" text-anchor="middle" x="384.25" y="-316.35" font-family="Helvetica,sans-Serif" font-size="9.00">reason</text>
</g>
<!-- docs -->
<g id="node14" class="node">
<title>docs</title>
<polygon fill="#bbf7d0" stroke="#15803d" stroke-width="1.6" points="954.15,-641.2 951.15,-645.2 930.15,-645.2 927.15,-641.2 833.85,-641.2 833.85,-597.6 954.15,-597.6 954.15,-641.2"/>
<text xml:space="preserve" text-anchor="start" x="853.5" y="-620.95" font-family="Helvetica,sans-Serif" font-weight="bold" font-size="11.00" fill="#14532d">guidelines/*.md</text>
<text xml:space="preserve" text-anchor="start" x="848.25" y="-609.95" font-family="Helvetica,sans-Serif" font-size="11.00" fill="#14532d">5 policy documents</text>
</g>
<!-- build -->
<g id="node15" class="node">
<title>build</title>
<path fill="#bbf7d0" stroke="#15803d" stroke-width="1.6" d="M971.02,-525.85C971.02,-525.85 816.98,-525.85 816.98,-525.85 810.98,-525.85 804.98,-519.85 804.98,-513.85 804.98,-513.85 804.98,-483.25 804.98,-483.25 804.98,-477.25 810.98,-471.25 816.98,-471.25 816.98,-471.25 971.02,-471.25 971.02,-471.25 977.02,-471.25 983.02,-477.25 983.02,-483.25 983.02,-483.25 983.02,-513.85 983.02,-513.85 983.02,-519.85 977.02,-525.85 971.02,-525.85"/>
<text xml:space="preserve" text-anchor="start" x="840" y="-505.6" font-family="Helvetica,sans-Serif" font-weight="bold" font-size="11.00" fill="#14532d">build_vectorstore.py</text>
<text xml:space="preserve" text-anchor="start" x="819.38" y="-494.6" font-family="Helvetica,sans-Serif" font-size="11.00" fill="#14532d">RecursiveCharacterTextSplitter</text>
<text xml:space="preserve" text-anchor="start" x="835.88" y="-483.6" font-family="Helvetica,sans-Serif" font-size="11.00" fill="#14532d">chunk=500 · overlap=80</text>
</g>
<!-- docs&#45;&gt;build -->
<g id="edge7" class="edge">
<title>docs&#45;&gt;build</title>
<path fill="none" stroke="#334155" stroke-width="1.3" d="M894,-596.88C894,-580.56 894,-557.69 894,-538.22"/>
<polygon fill="#334155" stroke="#334155" stroke-width="1.3" points="897.5,-538.3 894,-528.3 890.5,-538.3 897.5,-538.3"/>
<text xml:space="preserve" text-anchor="middle" x="906.38" y="-558.05" font-family="Helvetica,sans-Serif" font-size="9.00">chunk</text>
</g>
<!-- embed -->
<g id="node16" class="node">
<title>embed</title>
<path fill="#bbf7d0" stroke="#15803d" stroke-width="1.6" d="M932.02,-399.5C932.02,-399.5 837.98,-399.5 837.98,-399.5 831.98,-399.5 825.98,-393.5 825.98,-387.5 825.98,-387.5 825.98,-367.9 825.98,-367.9 825.98,-361.9 831.98,-355.9 837.98,-355.9 837.98,-355.9 932.02,-355.9 932.02,-355.9 938.02,-355.9 944.02,-361.9 944.02,-367.9 944.02,-367.9 944.02,-387.5 944.02,-387.5 944.02,-393.5 938.02,-399.5 932.02,-399.5"/>
<text xml:space="preserve" text-anchor="start" x="842.25" y="-379.25" font-family="Helvetica,sans-Serif" font-weight="bold" font-size="11.00" fill="#14532d">all&#45;MiniLM&#45;L6&#45;v2</text>
<text xml:space="preserve" text-anchor="start" x="840.38" y="-368.25" font-family="Helvetica,sans-Serif" font-size="11.00" fill="#14532d">384&#45;d embeddings</text>
</g>
<!-- build&#45;&gt;embed -->
<g id="edge8" class="edge">
<title>build&#45;&gt;embed</title>
<path fill="none" stroke="#334155" stroke-width="1.3" d="M891.96,-470.58C890.64,-453.14 888.91,-430.31 887.5,-411.77"/>
<polygon fill="#334155" stroke="#334155" stroke-width="1.3" points="891.01,-411.69 886.76,-401.99 884.03,-412.22 891.01,-411.69"/>
<text xml:space="preserve" text-anchor="middle" x="903.75" y="-431.7" font-family="Helvetica,sans-Serif" font-size="9.00">embed</text>
</g>
<!-- embed&#45;&gt;chroma -->
<g id="edge9" class="edge">
<title>embed&#45;&gt;chroma</title>
<path fill="none" stroke="#334155" stroke-width="1.3" d="M882.35,-355.25C880.35,-339 877.53,-316.18 875.09,-296.43"/>
<polygon fill="#334155" stroke="#334155" stroke-width="1.3" points="878.57,-296.06 873.87,-286.56 871.63,-296.92 878.57,-296.06"/>
<text xml:space="preserve" text-anchor="middle" x="891.9" y="-316.35" font-family="Helvetica,sans-Serif" font-size="9.00">persist</text>
</g>
</g>
</svg>
